<svg width="420" height="96" viewBox="0 0 420 96" fill="none" xmlns="http://www.w3.org/2000/svg">
<path d="M135.464 20.7761H185.664V0H112V96H135.464V61.6119H180.117V40.9791H135.464V20.7761Z" fill="#36393B"/>
<path d="M220.455 96V0H196.991V96H220.455Z" fill="#36393B"/>
<path d="M328 0H304.678V57.3134L256.47 0H236.987V96H260.451V40.406L308.66 96H328V0Z" fill="#36393B"/>
<path d="M380.931 0C359.409 0 344.605 11.1086 344.605 28.9371C344.605 45.6686 356.12 52.5257 369.279 55.5429L388.471 59.6571C395.051 61.0286 396.97 63.6343 396.97 67.7486C396.97 73.3714 391.898 77.2114 383.399 77.2114C374.214 77.2114 367.634 73.0971 365.304 63.6343L342 68.16C344.467 86.1257 361.466 96 382.165 96C402.591 96 420 85.8514 420 66.24C420 51.7029 410.678 43.0629 394.777 39.4971L375.722 35.2457C369.965 34.0114 368.32 31.2686 368.32 27.5657C368.32 22.3543 373.118 18.24 380.657 18.24C387.923 18.24 395.051 22.4914 396.696 31.1314L418.903 26.6057C415.476 9.87429 400.946 0 380.931 0Z" fill="#36393B"/>
<path d="M0 0H96V96H0V0Z" fill="#1FC1A2"/>
<path d="M41.85 59.8639H32.7662V62.0408C30.5521 60.1361 27.5998 59.0476 23.9095 59.0476C16.3586 59.0476 10 64.9252 10 73.5238C10 82.1769 16.3586 88 23.9095 88C27.5998 88 30.5521 86.9116 32.7662 85.0068V87.1837H41.85V59.8639ZM25.7831 80.5986C21.8089 80.5986 18.9135 77.7687 18.9135 73.5238C18.9135 69.3333 21.8089 66.449 25.7831 66.449C29.4734 66.449 32.7662 69.3333 32.7662 73.5238C32.7662 77.7687 29.4734 80.5986 25.7831 80.5986Z" fill="#FBFCFD"/>
<path d="M58.6703 87.1837V48H49.5865V87.1837H58.6703Z" fill="#FBFCFD"/>
<path d="M86.8994 79.1292C85.7071 79.7823 84.0039 80.2177 82.7549 80.2177C80.3704 80.2177 78.9511 79.0748 78.9511 76.2449V66.7755H87.3536V59.8639H78.9511V51.8095H69.8673V59.8639H64.7009V66.7755H69.8673V77.1156C69.8673 84.2993 74.1253 88 81.222 88C84.4581 88 86.7858 87.1293 89 85.9864L86.8994 79.1292Z" fill="#FBFCFD"/>
</svg>